<svg xmlns="http://www.w3.org/2000/svg" viewBox="0 0 24 24" width="24" height="24" role="img" aria-label="GitHub">
    <path fill="#181717"
        d="M12 .5C5.73.5.5 5.73.5 12c0 5.08 3.29 9.38 7.86 10.9.58.11.79-.25.79-.56 0-.28-.01-1.02-.02-2-3.2.7-3.88-1.54-3.88-1.54-.53-1.35-1.3-1.71-1.3-1.71-1.06-.72.08-.71.08-.71 1.17.08 1.78 1.2 1.78 1.2 1.04 1.78 2.73 1.27 3.4.97.11-.76.41-1.27.74-1.56-2.56-.29-5.26-1.28-5.26-5.72 0-1.26.45-2.29 1.19-3.1-.12-.29-.52-1.46.11-3.05 0 0 .97-.31 3.18 1.18.92-.26 1.9-.39 2.88-.39.98 0 1.96.13 2.88.39 2.2-1.49 3.17-1.18 3.17-1.18.63 1.59.24 2.76.12 3.05.74.81 1.18 1.84 1.18 3.1 0 4.45-2.71 5.43-5.29 5.71.42.36.8 1.08.8 2.18 0 1.57-.01 2.83-.01 3.22 0 .31.21.67.8.56C20.71 21.38 24 17.08 24 12c0-6.27-5.23-11.5-12-11.5z" />
</svg>